<svg width="50" height="50" viewBox="0 0 50 50" fill="none" xmlns="http://www.w3.org/2000/svg">
<path fill-rule="evenodd" clip-rule="evenodd" d="M33.3141 16.2969C33.9368 15.6994 34.9258 15.7197 35.5233 16.3424L42.7937 23.9181C43.3739 24.5227 43.3739 25.4773 42.7937 26.0819L35.5233 33.6577C34.9258 34.2802 33.9368 34.3006 33.3141 33.7031C32.6916 33.1056 32.6712 32.1165 33.2687 31.494L38.0008 26.5629H23.4847C22.6218 26.5629 21.9222 25.8634 21.9222 25.0004C21.9222 24.1375 22.6218 23.4379 23.4847 23.4379H38.0016L33.2687 18.5062C32.6712 17.8835 32.6916 16.8944 33.3141 16.2969Z" fill="black"/>
<path fill-rule="evenodd" clip-rule="evenodd" d="M6.77087 8.33331C6.77087 7.47038 7.47044 6.77081 8.33337 6.77081H28.0302C28.8934 6.77081 29.5927 7.47038 29.5927 8.33331V14.5833C29.5927 15.4462 28.8934 16.1458 28.0302 16.1458C27.1673 16.1458 26.4677 15.4462 26.4677 14.5833V9.89581H9.89587V40.1041H26.4677V35.4166C26.4677 34.5537 27.1673 33.8541 28.0302 33.8541C28.8934 33.8541 29.5927 34.5537 29.5927 35.4166V41.6666C29.5927 42.5296 28.8934 43.2291 28.0302 43.2291H8.33337C7.47044 43.2291 6.77087 42.5296 6.77087 41.6666V8.33331Z" fill="black"/>
</svg>
