<svg width="49" height="50" viewBox="0 0 49 50" fill="none" xmlns="http://www.w3.org/2000/svg">
<path d="M47.2054 18.7331L31.7193 3.02629C29.8027 1.08828 27.2066 0 24.5 0C21.7934 0 19.1973 1.08828 17.2807 3.02629L1.79465 18.7331C1.22385 19.3082 0.771304 19.9926 0.463243 20.7464C0.155181 21.5002 -0.00226707 22.3086 2.46623e-05 23.1246V43.4507C2.46623e-05 45.0981 0.645335 46.678 1.79399 47.8429C2.94265 49.0077 4.50057 49.6622 6.12502 49.6622H42.875C44.4994 49.6622 46.0573 49.0077 47.206 47.8429C48.3547 46.678 49 45.0981 49 43.4507V23.1246C49.0023 22.3086 48.8448 21.5002 48.5368 20.7464C48.2287 19.9926 47.7761 19.3082 47.2054 18.7331ZM30.625 45.5212H18.375V37.3758C18.375 35.7284 19.0203 34.1485 20.169 32.9836C21.3176 31.8188 22.8756 31.1643 24.5 31.1643C26.1245 31.1643 27.6824 31.8188 28.831 32.9836C29.9797 34.1485 30.625 35.7284 30.625 37.3758V45.5212ZM44.9166 43.4507C44.9166 43.9998 44.7015 44.5264 44.3187 44.9147C43.9358 45.303 43.4165 45.5212 42.875 45.5212H34.7083V37.3758C34.7083 34.6302 33.6328 31.997 31.7184 30.0555C29.8039 28.1141 27.2074 27.0233 24.5 27.0233C21.7926 27.0233 19.1961 28.1141 17.2816 30.0555C15.3672 31.997 14.2917 34.6302 14.2917 37.3758V45.5212H6.12502C5.58354 45.5212 5.06423 45.303 4.68134 44.9147C4.29846 44.5264 4.08335 43.9998 4.08335 43.4507V23.1246C4.08525 22.5759 4.30016 22.05 4.68156 21.6608L20.1676 5.96019C21.3185 4.79849 22.8762 4.14631 24.5 4.14631C26.1238 4.14631 27.6815 4.79849 28.8324 5.96019L44.3184 21.667C44.6984 22.0547 44.9131 22.578 44.9166 23.1246V43.4507Z" fill="white"/>
</svg>
