<svg width="48" height="36" viewBox="0 0 48 36" fill="none" xmlns="http://www.w3.org/2000/svg">
<path d="M20.84 35.312C19.2327 35.3105 17.6679 34.7955 16.374 33.842L3.092 24.102C2.13459 23.3989 1.3561 22.4804 0.819528 21.4207C0.282954 20.361 0.00335693 19.1898 0.00335693 18.002C0.00335693 16.8142 0.282954 15.643 0.819528 14.5833C1.3561 13.5236 2.13459 12.605 3.092 11.902L16.374 2.162C17.4634 1.3615 18.7473 0.867486 20.0923 0.731341C21.4372 0.595197 22.7941 0.821892 24.0218 1.38785C25.2495 1.95381 26.3031 2.83835 27.073 3.94949C27.843 5.06063 28.3012 6.35777 28.4 7.706L35.964 2.158C37.0917 1.3331 38.4258 0.836499 39.8185 0.723227C41.2111 0.609955 42.6079 0.884429 43.8541 1.51624C45.1004 2.14805 46.1474 3.11253 46.8791 4.30283C47.6109 5.49312 47.9988 6.86276 48 8.26V27.74C47.9996 29.1382 47.6119 30.509 46.8799 31.7003C46.1478 32.8916 45.1 33.8568 43.8528 34.4888C42.6055 35.1208 41.2076 35.395 39.814 35.2808C38.4204 35.1666 37.0857 34.6686 35.958 33.842L28.4 28.294C28.2582 30.2009 27.401 31.9838 26.0001 33.2853C24.5992 34.5868 22.7582 35.3107 20.846 35.312H20.84ZM26.414 22.362C26.8399 22.362 27.2547 22.4979 27.598 22.75L38.324 30.616C38.8556 31.0053 39.4847 31.2398 40.1414 31.2934C40.7981 31.3471 41.4569 31.2179 42.0447 30.92C42.6325 30.6222 43.1263 30.1674 43.4714 29.6061C43.8165 29.0448 43.9995 28.3989 44 27.74V8.26C43.999 7.60104 43.8157 6.9552 43.4703 6.39401C43.125 5.83282 42.631 5.37818 42.0431 5.08042C41.4553 4.78266 40.7965 4.65342 40.1397 4.707C39.4829 4.76058 38.8538 4.9949 38.322 5.384L27.6 13.25C27.302 13.4689 26.9492 13.6009 26.5807 13.6313C26.2122 13.6618 25.8425 13.5895 25.5126 13.4225C25.1827 13.2555 24.9056 13.0003 24.712 12.6853C24.5185 12.3702 24.416 12.0077 24.416 11.638V8.26C24.4158 7.60074 24.2329 6.95443 23.8877 6.3928C23.5424 5.83116 23.0483 5.37615 22.4602 5.07826C21.8721 4.78037 21.213 4.65125 20.5559 4.70521C19.8989 4.75918 19.2696 4.99413 18.738 5.384L5.458 15.124C5.00621 15.4552 4.6388 15.8882 4.38554 16.3878C4.13229 16.8875 4.00031 17.4398 4.00031 18C4.00031 18.5602 4.13229 19.1125 4.38554 19.6122C4.6388 20.1118 5.00621 20.5448 5.458 20.876L18.738 30.616C19.2696 31.0053 19.8987 31.2398 20.5554 31.2934C21.2121 31.3471 21.8709 31.2179 22.4587 30.92C23.0465 30.6222 23.5403 30.1674 23.8854 29.6061C24.2305 29.0448 24.4135 28.3989 24.414 27.74V24.362C24.414 23.8316 24.6247 23.3229 24.9998 22.9478C25.3749 22.5727 25.8836 22.362 26.414 22.362Z" fill="#979797"/>
</svg>
