<svg width="48" height="48" viewBox="0 0 48 48" fill="none" xmlns="http://www.w3.org/2000/svg">
<g clip-path="url(#clip0_195_3)">
<path d="M24 0C10.766 0 0 10.766 0 24C0 37.234 10.766 48 24 48C37.234 48 48 37.234 48 24C48 10.766 37.234 0 24 0ZM24 44C12.972 44 4 35.028 4 24C4 12.972 12.972 4 24 4C35.028 4 44 12.972 44 24C44 35.028 35.028 44 24 44ZM18 16H22V32H18V16ZM26 16H30V32H26V16Z" fill="black"/>
</g>
<defs>
<clipPath id="clip0_195_3">
<rect width="48" height="48" fill="white"/>
</clipPath>
</defs>
</svg>
