<svg width="48" height="48" viewBox="0 0 48 48" fill="none" xmlns="http://www.w3.org/2000/svg">
<path d="M32.79 20.244L22.406 14.558C21.06 13.8 19.46 13.814 18.13 14.592C16.796 15.372 16.002 16.758 16.002 18.302V29.7C16.002 31.244 16.796 32.63 18.13 33.41C18.81 33.808 19.558 34.004 20.304 34.004C21.02 34.004 21.736 33.822 22.386 33.456L32.81 27.748C34.184 26.976 35.002 25.576 35.002 24.002C35.002 22.428 34.184 21.028 32.792 20.246L32.79 20.244ZM30.868 24.25L20.444 29.96C20.406 29.98 20.29 30.044 20.15 29.958C20.002 29.872 20.002 29.744 20.002 29.702V18.304C20.002 18.262 20.002 18.134 20.15 18.048C20.204 18.016 20.254 18.006 20.298 18.006C20.37 18.006 20.428 18.038 20.464 18.058L30.848 23.746C30.886 23.768 31 23.832 31 24.006C31 24.18 30.884 24.244 30.868 24.256V24.25ZM24 0C10.766 0 0 10.766 0 24C0 37.234 10.766 48 24 48C37.234 48 48 37.234 48 24C48 10.766 37.234 0 24 0ZM24 44C12.972 44 4 35.028 4 24C4 12.972 12.972 4 24 4C35.028 4 44 12.972 44 24C44 35.028 35.028 44 24 44Z" fill="#979797"/>
</svg>
