<svg width="48" height="36" viewBox="0 0 48 36" fill="none" xmlns="http://www.w3.org/2000/svg">
<path d="M7.57399 35.312C5.56591 35.3109 3.64036 34.5129 2.22024 33.0932C0.800129 31.6734 0.00158229 29.7481 -7.36012e-06 27.74V8.26001C-0.000380421 6.86147 0.386887 5.49019 1.11879 4.29845C1.85069 3.10672 2.89859 2.14116 4.14611 1.50901C5.39362 0.876859 6.79194 0.602852 8.18579 0.717418C9.57963 0.831984 10.9144 1.33064 12.042 2.15801L19.6 7.70601C19.6988 6.35844 20.1567 5.06192 20.926 3.95117C21.6954 2.84042 22.7482 1.95597 23.975 1.38972C25.2018 0.823465 26.5579 0.59608 27.9023 0.731188C29.2467 0.866296 30.5304 1.35897 31.62 2.15801L44.902 11.898C45.8594 12.6011 46.6379 13.5196 47.1745 14.5793C47.711 15.639 47.9906 16.8102 47.9906 17.998C47.9906 19.1858 47.711 20.357 47.1745 21.4167C46.6379 22.4764 45.8594 23.395 44.902 24.098L31.62 33.838C30.5307 34.6369 29.2473 35.1296 27.9032 35.2649C26.5591 35.4002 25.2033 35.1732 23.9766 34.6074C22.7499 34.0416 21.6971 33.1577 20.9274 32.0475C20.1578 30.9373 19.6995 29.6412 19.6 28.294L12.042 33.842C10.7472 34.7953 9.18186 35.3103 7.57399 35.312ZM21.586 22.362C22.1164 22.362 22.6251 22.5727 23.0002 22.9478C23.3753 23.3229 23.586 23.8316 23.586 24.362V27.74C23.5865 28.3989 23.7694 29.0448 24.1146 29.6061C24.4597 30.1675 24.9535 30.6222 25.5413 30.92C26.1291 31.2179 26.7879 31.3471 27.4446 31.2934C28.1013 31.2398 28.7304 31.0053 29.262 30.616L42.542 20.876C42.9938 20.5448 43.3612 20.1118 43.6144 19.6122C43.8677 19.1125 43.9997 18.5602 43.9997 18C43.9997 17.4398 43.8677 16.8875 43.6144 16.3878C43.3612 15.8882 42.9938 15.4552 42.542 15.124L29.262 5.38401C28.7304 4.99471 28.1013 4.76023 27.4446 4.70657C26.7879 4.6529 26.1291 4.78214 25.5413 5.07997C24.9535 5.37779 24.4597 5.83256 24.1146 6.39387C23.7694 6.95517 23.5865 7.60109 23.586 8.26001V11.638C23.5857 12.0074 23.4832 12.3695 23.2897 12.6842C23.0962 12.9989 22.8194 13.2538 22.4898 13.4208C22.1603 13.5877 21.791 13.6601 21.4228 13.63C21.0546 13.5999 20.702 13.4683 20.404 13.25L9.67599 5.38401C9.14437 4.99471 8.51532 4.76023 7.85859 4.70657C7.20185 4.6529 6.54309 4.78214 5.95531 5.07997C5.36753 5.37779 4.87371 5.83256 4.52858 6.39387C4.18345 6.95517 4.00049 7.60109 3.99999 8.26001V27.74C4.00049 28.3989 4.18345 29.0448 4.52858 29.6061C4.87371 30.1675 5.36753 30.6222 5.95531 30.92C6.54309 31.2179 7.20185 31.3471 7.85859 31.2934C8.51532 31.2398 9.14437 31.0053 9.67599 30.616L20.4 22.75C20.7438 22.4975 21.1594 22.3615 21.586 22.362Z" fill="#979797"/>
</svg>
