<svg width="49" height="50" viewBox="0 0 49 50" fill="none" xmlns="http://www.w3.org/2000/svg">
<g clip-path="url(#clip0_18_10)">
<path d="M49 47.0542L36.2151 34.0083C39.5361 29.8637 41.1689 24.5752 40.7758 19.2366C40.3828 13.898 37.9938 8.91778 34.1032 5.32609C30.2125 1.7344 25.1178 -0.193971 19.8728 -0.0601547C14.6279 0.0736616 9.63402 2.25943 5.92412 6.04503C2.21423 9.83063 0.0721823 14.9264 -0.0589577 20.2784C-0.190098 25.6304 1.69971 30.8291 5.21956 34.7991C8.73941 38.7692 13.62 41.2069 18.8519 41.608C24.0837 42.0091 29.2665 40.343 33.3282 36.9542L46.1131 50L49 47.0542ZM20.4167 37.5C17.1862 37.5 14.0284 36.5225 11.3424 34.6912C8.65635 32.8598 6.56286 30.2568 5.32663 27.2114C4.0904 24.166 3.76695 20.8148 4.39717 17.5818C5.0274 14.3488 6.583 11.3791 8.86725 9.04822C11.1515 6.71735 14.0618 5.13 17.2302 4.48691C20.3985 3.84383 23.6826 4.17388 26.6672 5.43534C29.6517 6.6968 32.2026 8.83301 33.9973 11.5738C35.7921 14.3147 36.75 17.537 36.75 20.8333C36.7451 25.2521 35.0227 29.4884 31.9607 32.613C28.8987 35.7375 24.747 37.495 20.4167 37.5Z" fill="#979797"/>
</g>
<defs>
<clipPath id="clip0_18_10">
<rect width="49" height="50" fill="white"/>
</clipPath>
</defs>
</svg>
