<svg width="52" height="50" viewBox="0 0 52 50" fill="none" xmlns="http://www.w3.org/2000/svg">
<g clip-path="url(#clip0_18_25)">
<path d="M51.6447 18.3208C51.2015 16.9644 50.316 15.7811 49.1193 14.9459C47.9226 14.1107 46.4781 13.6681 44.9995 13.6833H35.5333L32.6582 5.06666C32.206 3.71033 31.3176 2.52711 30.1209 1.68763C28.9243 0.848159 27.4813 0.395805 26 0.395805C24.5187 0.395805 23.0757 0.848159 21.8791 1.68763C20.6824 2.52711 19.794 3.71033 19.3418 5.06666L16.4667 13.6833H7.00051C5.52662 13.6853 4.09109 14.1352 2.89896 14.9685C1.70684 15.8019 0.819094 16.9762 0.362536 18.3237C-0.0940229 19.6712 -0.0960437 21.123 0.356762 22.4716C0.809568 23.8203 1.69404 24.9969 2.88384 25.8333L10.5885 31.25L7.65917 39.9729C7.18578 41.3258 7.17978 42.7896 7.64208 44.146C8.10437 45.5024 9.01019 46.6789 10.2245 47.5C11.418 48.3475 12.8644 48.8014 14.348 48.7943C15.8317 48.7872 17.2732 48.3193 18.4578 47.4604L26 42.1229L33.5443 47.4542C34.7357 48.2968 36.1742 48.7544 37.6531 48.7614C39.1321 48.7683 40.5752 48.3241 41.775 47.4927C42.9748 46.6613 43.8696 45.4855 44.3306 44.1343C44.7917 42.7831 44.7952 41.3262 44.3408 39.9729L41.4115 31.25L49.1248 25.8333C50.3282 25.0074 51.2231 23.8308 51.6769 22.4778C52.1307 21.1248 52.1194 19.6672 51.6447 18.3208ZM46.5682 22.4687L37.5895 28.7792C37.2207 29.0378 36.9463 29.4019 36.8055 29.8194C36.6646 30.237 36.6645 30.6866 36.8052 31.1042L40.2177 41.25C40.3903 41.7646 40.3889 42.3186 40.2135 42.8323C40.038 43.3461 39.6977 43.7931 39.2414 44.1091C38.7851 44.4251 38.2364 44.5939 37.674 44.5912C37.1117 44.5884 36.5648 44.4142 36.1118 44.0938L27.2827 37.8438C26.9108 37.5811 26.4614 37.4394 26 37.4394C25.5386 37.4394 25.0892 37.5811 24.7173 37.8438L15.8882 44.0938C15.4355 44.4186 14.887 44.5963 14.3222 44.6013C13.7575 44.6062 13.2057 44.438 12.747 44.1211C12.2883 43.8043 11.9465 43.3552 11.7711 42.8389C11.5957 42.3227 11.5958 41.7661 11.7715 41.25L15.1948 31.1042C15.3355 30.6866 15.3354 30.237 15.1945 29.8194C15.0537 29.4019 14.7793 29.0378 14.4105 28.7792L5.43184 22.4687C4.97966 22.1504 4.64368 21.7028 4.47188 21.1899C4.30008 20.677 4.30125 20.1249 4.47522 19.6127C4.6492 19.1005 4.98707 18.6542 5.4406 18.3376C5.89412 18.021 6.44008 17.8504 7.00051 17.85H18.0505C18.5092 17.85 18.9561 17.71 19.3268 17.4502C19.6975 17.1903 19.9728 16.8241 20.1132 16.4042L23.4715 6.33958C23.6439 5.82455 23.9818 5.3754 24.4365 5.05677C24.8913 4.73814 25.4395 4.56647 26.0022 4.56647C26.5649 4.56647 27.113 4.73814 27.5678 5.05677C28.0226 5.3754 28.3605 5.82455 28.5328 6.33958L31.8912 16.4042C32.0315 16.8241 32.3069 17.1903 32.6776 17.4502C33.0482 17.71 33.4951 17.85 33.9538 17.85H45.0038C45.5643 17.8504 46.1102 18.021 46.5637 18.3376C47.0173 18.6542 47.3551 19.1005 47.5291 19.6127C47.7031 20.1249 47.7043 20.677 47.5325 21.1899C47.3607 21.7028 47.0247 22.1504 46.5725 22.4687H46.5682Z" fill="#979797"/>
</g>
<defs>
<clipPath id="clip0_18_25">
<rect width="52" height="50" fill="white"/>
</clipPath>
</defs>
</svg>
